<?xml version="1.0" encoding="UTF-8"?>
<svg xmlns="http://www.w3.org/2000/svg"
     width="48" height="48" viewBox="0 0 256 256">
  <g fill="none" stroke="#111111" stroke-width="9"
     stroke-linecap="round" stroke-linejoin="round">

    <!-- 鸟喙：左上尖端即鼠标热点 -->
    <path d="M18 20
             C31 24, 42 29, 52 38
             C41 42, 31 49, 23 58
             C24 44, 22 31, 18 20 Z"
          fill="#FFFFFF"/>

    <!-- 圆润鸟身，略微不规则以保留手绘感 -->
    <path d="M48 40
             C70 24, 108 20, 139 32
             C168 43, 191 66, 200 94
             C209 122, 205 154, 188 178
             C170 203, 143 217, 112 216
             C81 215, 56 202, 43 181
             C29 159, 27 129, 34 103
             C40 80, 50 61, 48 40 Z"
          fill="#FFFFFF"/>

    <!-- 小翅膀 -->
    <path d="M89 105
             C105 91, 130 91, 145 106
             C133 117, 119 129, 98 134
             C94 124, 91 114, 89 105 Z"
          fill="#FFFFFF"/>

    <!-- 尾羽 -->
    <path d="M183 165
             C203 169, 220 178, 232 191
             C214 191, 198 188, 184 181"/>
    <path d="M180 177
             C199 187, 211 198, 219 212
             C201 205, 189 197, 177 188"/>

    <!-- 眼睛 -->
    <path d="M99 70
             C103 66, 110 66, 114 70
             C111 75, 103 76, 99 70 Z"
          fill="#111111" stroke="none"/>

    <!-- 头顶一撮毛 -->
    <path d="M128 31 C134 20, 142 17, 148 20"/>
    <path d="M139 34 C148 25, 157 25, 162 30"/>

    <!-- 小脚 -->
    <path d="M92 216 C89 227, 86 235, 81 241"/>
    <path d="M92 228 C84 229, 78 232, 73 237"/>
    <path d="M139 216 C142 227, 145 235, 150 241"/>
    <path d="M140 229 C148 230, 154 233, 160 238"/>
  </g>
</svg>
